<?xml version="1.0" standalone="no"?><!DOCTYPE svg PUBLIC "-//W3C//DTD SVG 1.1//EN" "http://www.w3.org/Graphics/SVG/1.1/DTD/svg11.dtd"><svg t="1719765920985" class="icon" viewBox="0 0 1024 1024" version="1.1" xmlns="http://www.w3.org/2000/svg" p-id="11364" width="200" height="200" xmlns:xlink="http://www.w3.org/1999/xlink"><path d="M618.075 482.715C699.58 439.89 755.2 354.46 755.2 256c0-141.385-114.615-256-256-256s-256 114.615-256 256c0 101.64 59.23 189.44 145.06 230.775C165.28 542.125 0 743.59 0 983.69c0 13.569 0.535 27.01 1.57 40.31h51.405a465.2 465.2 0 0 1-1.775-40.31c0-254.5 206.305-460.806 460.8-460.806S972.8 729.19 972.8 983.69c0 13.585-0.625 27.024-1.774 40.31h51.399a519.409 519.409 0 0 0 1.575-40.31c0-246.4-174.065-452.12-405.925-500.975zM294.4 256c0-113.11 91.69-204.8 204.8-204.8C612.31 51.2 704 142.89 704 256s-91.69 204.8-204.8 204.8c-113.11 0-204.8-91.69-204.8-204.8z" fill="#231815" p-id="11365"></path></svg>