<?xml version="1.0" standalone="no"?><!DOCTYPE svg PUBLIC "-//W3C//DTD SVG 1.1//EN" "http://www.w3.org/Graphics/SVG/1.1/DTD/svg11.dtd"><svg t="1719781113471" class="icon" viewBox="0 0 1024 1024" version="1.1" xmlns="http://www.w3.org/2000/svg" p-id="14422" xmlns:xlink="http://www.w3.org/1999/xlink" width="200" height="200"><path d="M355.299706 662.198707A330.978954 330.978954 0 1 1 686.519459 330.978954 331.460553 331.460553 0 0 1 355.299706 662.198707z m0-614.038801A282.819048 282.819048 0 1 0 638.359553 330.978954 283.180247 283.180247 0 0 0 355.299706 48.159906z" fill="#bfbfbf" p-id="14423"></path><path d="M492.940276 604.445967m43.589371-43.58937l0.085135-0.085136q43.589371-43.589371 87.178742 0l357.909601 357.909601q43.589371 43.589371 0 87.178742l-0.085136 0.085135q-43.589371 43.589371-87.178741 0l-357.909601-357.909601q-43.589371-43.589371 0-87.178741Z" fill="#bfbfbf" p-id="14424"></path></svg>