<?xml version="1.0" standalone="no"?><!DOCTYPE svg PUBLIC "-//W3C//DTD SVG 1.1//EN" "http://www.w3.org/Graphics/SVG/1.1/DTD/svg11.dtd"><svg t="1719797197440" class="icon" viewBox="0 0 1024 1024" version="1.1" xmlns="http://www.w3.org/2000/svg" p-id="8733" width="200" height="200" xmlns:xlink="http://www.w3.org/1999/xlink"><path d="M512 1003.2C243.2 1003.2 22.4 784 22.4 513.6 22.4 244.8 243.2 25.6 512 25.6s489.6 219.2 489.6 489.6C1001.6 784 780.8 1003.2 512 1003.2z m0-913.6C278.4 89.6 86.4 280 86.4 513.6s192 425.6 425.6 425.6 425.6-190.4 425.6-425.6S745.6 89.6 512 89.6z" fill="#7dc5eb" p-id="8734"></path><path d="M425.6 692.8c-17.6 0-32-14.4-32-32V377.6c0-17.6 14.4-32 32-32s32 14.4 32 32v283.2c0 17.6-14.4 32-32 32zM598.4 692.8c-17.6 0-32-14.4-32-32V377.6c0-17.6 14.4-32 32-32s32 14.4 32 32v283.2c0 17.6-14.4 32-32 32z" fill="#7dc5eb" p-id="8735"></path></svg>