<?xml version="1.0" standalone="no"?><!DOCTYPE svg PUBLIC "-//W3C//DTD SVG 1.1//EN" "http://www.w3.org/Graphics/SVG/1.1/DTD/svg11.dtd"><svg t="1719765582555" class="icon" viewBox="0 0 1024 1024" version="1.1" xmlns="http://www.w3.org/2000/svg" p-id="9868" xmlns:xlink="http://www.w3.org/1999/xlink" width="200" height="200"><path d="M114.036364 1024c-9.309091 0-18.618182-9.309091-18.618182-18.618182v-195.490909l-4.654546-4.654545c-27.927273-39.563636-51.2-86.109091-65.163636-132.654546C9.309091 621.381818 0 567.854545 0 512c0-134.981818 53.527273-262.981818 148.945455-360.727273l2.327272-2.327272C246.690909 53.527273 374.690909 0 512 0c132.654545 0 260.654545 51.2 356.072727 144.290909l6.981818 6.981818c46.545455 46.545455 83.781818 102.4 109.381819 162.909091C1010.036364 377.018182 1024 442.181818 1024 512c0 132.654545-51.2 260.654545-144.290909 356.072727l-6.981818 6.981818c-46.545455 46.545455-102.4 83.781818-162.909091 109.381819C649.309091 1010.036364 581.818182 1024 512 1024H114.036364zM512 37.236364c-125.672727 0-244.363636 48.872727-335.127273 139.636363l-2.327272 2.327273C86.109091 267.636364 37.236364 386.327273 37.236364 512c0 51.2 6.981818 100.072727 23.272727 146.618182 13.963636 46.545455 37.236364 90.763636 67.490909 132.654545 2.327273 4.654545 4.654545 6.981818 4.654545 11.636364v183.854545H512c125.672727 0 246.690909-48.872727 335.127273-139.636363 88.436364-88.436364 139.636364-207.127273 139.636363-335.127273 0-125.672727-48.872727-246.690909-139.636363-335.127273-88.436364-88.436364-209.454545-139.636364-335.127273-139.636363z" p-id="9869"></path><path d="M502.690909 774.981818c-4.654545 0-6.981818-2.327273-11.636364-4.654545l-181.527272-174.545455-2.327273-2.327273c-44.218182-44.218182-55.854545-100.072727-34.909091-153.6 23.272727-58.181818 81.454545-97.745455 141.963636-97.745454 27.927273 0 55.854545 9.309091 81.454546 25.6l4.654545 2.327273 4.654546-2.327273c25.6-16.290909 53.527273-25.6 81.454545-25.6 60.509091 0 118.690909 39.563636 141.963637 97.745454 23.272727 53.527273 9.309091 109.381818-34.909091 153.6l-2.327273 2.327273-179.2 174.545455c-2.327273 2.327273-6.981818 4.654545-9.309091 4.654545zM416.581818 372.363636c-48.872727 0-95.418182 32.581818-114.036363 76.8-16.290909 41.890909-6.981818 86.109091 27.927272 121.018182l172.218182 165.236364 169.890909-165.236364c34.909091-34.909091 44.218182-79.127273 27.927273-121.018182-18.618182-46.545455-65.163636-76.8-114.036364-76.8-27.927273 0-53.527273 9.309091-76.8 27.927273-2.327273 2.327273-6.981818 4.654545-9.309091 4.654546-2.327273 0-6.981818-2.327273-9.309091-4.654546-20.945455-18.618182-48.872727-27.927273-74.472727-27.927273z" p-id="9870"></path></svg>